<svg xmlns="http://www.w3.org/2000/svg" width="760" height="420" viewBox="0 0 760 420" role="img" aria-label="产品属性偏好">
  <rect width="100%" height="100%" fill="#ffffff"/>
  <text x="28" y="42" font-family="Noto Sans SC, Microsoft YaHei, Arial, sans-serif" font-size="22" font-weight="700" fill="#0f172a">产品属性偏好</text>
  <text x="28" y="96" font-family="Noto Sans SC, Microsoft YaHei, Arial, sans-serif" font-size="14" fill="#334155">进口奶源</text>
  <rect x="160" y="78" width="468" height="24" rx="6" fill="#e2e8f0"/>
  <rect x="160" y="78" width="468" height="24" rx="6" fill="#0ea5e9"/>
  <text x="644" y="96" font-family="Arial, sans-serif" font-size="14" fill="#0f172a">456 件</text>
  <text x="28" y="136" font-family="Noto Sans SC, Microsoft YaHei, Arial, sans-serif" font-size="14" fill="#334155">脱脂</text>
  <rect x="160" y="118" width="468" height="24" rx="6" fill="#e2e8f0"/>
  <rect x="160" y="118" width="451" height="24" rx="6" fill="#10b981"/>
  <text x="644" y="136" font-family="Arial, sans-serif" font-size="14" fill="#0f172a">440 件</text>
  <text x="28" y="176" font-family="Noto Sans SC, Microsoft YaHei, Arial, sans-serif" font-size="14" fill="#334155">高钙</text>
  <rect x="160" y="158" width="468" height="24" rx="6" fill="#e2e8f0"/>
  <rect x="160" y="158" width="451" height="24" rx="6" fill="#8b5cf6"/>
  <text x="644" y="176" font-family="Arial, sans-serif" font-size="14" fill="#0f172a">440 件</text>
  <text x="28" y="216" font-family="Noto Sans SC, Microsoft YaHei, Arial, sans-serif" font-size="14" fill="#334155">A2β-酪蛋白</text>
  <rect x="160" y="198" width="468" height="24" rx="6" fill="#e2e8f0"/>
  <rect x="160" y="198" width="447" height="24" rx="6" fill="#f59e0b"/>
  <text x="644" y="216" font-family="Arial, sans-serif" font-size="14" fill="#0f172a">436 件</text>
  <text x="28" y="256" font-family="Noto Sans SC, Microsoft YaHei, Arial, sans-serif" font-size="14" fill="#334155">儿童</text>
  <rect x="160" y="238" width="468" height="24" rx="6" fill="#e2e8f0"/>
  <rect x="160" y="238" width="434" height="24" rx="6" fill="#ec4899"/>
  <text x="644" y="256" font-family="Arial, sans-serif" font-size="14" fill="#0f172a">423 件</text>
  <text x="28" y="296" font-family="Noto Sans SC, Microsoft YaHei, Arial, sans-serif" font-size="14" fill="#334155">低脂</text>
  <rect x="160" y="278" width="468" height="24" rx="6" fill="#e2e8f0"/>
  <rect x="160" y="278" width="432" height="24" rx="6" fill="#6366f1"/>
  <text x="644" y="296" font-family="Arial, sans-serif" font-size="14" fill="#0f172a">421 件</text>
  <text x="28" y="336" font-family="Noto Sans SC, Microsoft YaHei, Arial, sans-serif" font-size="14" fill="#334155">全脂</text>
  <rect x="160" y="318" width="468" height="24" rx="6" fill="#e2e8f0"/>
  <rect x="160" y="318" width="432" height="24" rx="6" fill="#14b8a6"/>
  <text x="644" y="336" font-family="Arial, sans-serif" font-size="14" fill="#0f172a">421 件</text>
  <text x="28" y="376" font-family="Noto Sans SC, Microsoft YaHei, Arial, sans-serif" font-size="14" fill="#334155">有机</text>
  <rect x="160" y="358" width="468" height="24" rx="6" fill="#e2e8f0"/>
  <rect x="160" y="358" width="412" height="24" rx="6" fill="#f97316"/>
  <text x="644" y="376" font-family="Arial, sans-serif" font-size="14" fill="#0f172a">402 件</text>
</svg>
